# xmcd
#
# Track frame offsets:
#	150
#	13376
#	28409
#	44360
#	60507
#	78478
#	91208
#	107365
#	118117
#	130056
#	144782
#	154986
#	165846
#	185141
#	194740
#	206235
#	218878
#	231793
#
# Disc length: 3205 seconds
#
# Revision: 0
# Processed by: cddbd v1.5.2PL0 Copyright (c) Steve Scherf et al.
# Submitted via: dBpowerAMP V4.0
#
DISCID=010c8312
DTITLE=Lynn Anderson - # 1
DYEAR=1900
DGENRE=Country
TTITLE0=Rose Garden
TTITLE1=Desperado
TTITLE2=You Needed Me
TTITLE3=I Was Contry When Contry Was Cool
TTITLE4=Under The Boardwalk
TTITLE5=Top Of The World
TTITLE6=The Devil Went Dovn To Georgia
TTITLE7=If I Kiss You
TTITLE8=Even The Cowgirl Get The Blues
TTITLE9=We´ve Only Just Begun
TTITLE10=Fool Me
TTITLE11=Ways To Love A Man
TTITLE12=Love Has No Pride
TTITLE13=Snowbird
TTITLE14=Listen To A Country Song
TTITLE15=It Must Be Love
TTITLE16=Mansion On The Hill
TTITLE17=Rocky Top
EXTD=#1 out of tree
EXTT0=
EXTT1=
EXTT2=
EXTT3=
EXTT4=
EXTT5=
EXTT6=
EXTT7=
EXTT8=
EXTT9=
EXTT10=
EXTT11=
EXTT12=
EXTT13=
EXTT14=
EXTT15=
EXTT16=
EXTT17=
PLAYORDER=
